<svg width="16" height="14" viewBox="0 0 16 14" fill="none" xmlns="http://www.w3.org/2000/svg">
<path d="M1.84615 13.6667C1.4626 13.6667 1.14236 13.5382 0.885417 13.2813C0.628472 13.0243 0.5 12.7041 0.5 12.3206V4.17952C0.5 3.79598 0.628472 3.47574 0.885417 3.21879C1.14236 2.96185 1.4626 2.83337 1.84615 2.83337H5.5V1.67952C5.5 1.29598 5.62847 0.975735 5.88542 0.718791C6.14236 0.461846 6.4626 0.333374 6.84615 0.333374H9.15385C9.5374 0.333374 9.85764 0.461846 10.1146 0.718791C10.3715 0.975735 10.5 1.29598 10.5 1.67952V2.83337H14.1539C14.5374 2.83337 14.8576 2.96185 15.1146 3.21879C15.3715 3.47574 15.5 3.79598 15.5 4.17952V12.3206C15.5 12.7041 15.3715 13.0243 15.1146 13.2813C14.8576 13.5382 14.5374 13.6667 14.1539 13.6667H1.84615ZM1.84615 12.8334H14.1539C14.282 12.8334 14.3996 12.78 14.5064 12.6731C14.6132 12.5663 14.6667 12.4488 14.6667 12.3206V4.17952C14.6667 4.05133 14.6132 3.9338 14.5064 3.82696C14.3996 3.72012 14.282 3.66671 14.1539 3.66671H1.84615C1.71795 3.66671 1.60043 3.72012 1.49358 3.82696C1.38675 3.9338 1.33333 4.05133 1.33333 4.17952V12.3206C1.33333 12.4488 1.38675 12.5663 1.49358 12.6731C1.60043 12.78 1.71795 12.8334 1.84615 12.8334ZM6.33333 2.83337H9.66667V1.67952C9.66667 1.55131 9.61325 1.43379 9.50642 1.32696C9.39957 1.22012 9.28205 1.16671 9.15385 1.16671H6.84615C6.71795 1.16671 6.60043 1.22012 6.49358 1.32696C6.38675 1.43379 6.33333 1.55131 6.33333 1.67952V2.83337Z" fill="#5B48FC"/>
</svg>